<?xml version="1.0" encoding="UTF-8"?>
<svg width="60px" height="31px" viewBox="0 0 60 31" version="1.1" xmlns="http://www.w3.org/2000/svg" xmlns:xlink="http://www.w3.org/1999/xlink">
    <!-- Generator: Sketch 51.2 (57519) - http://www.bohemiancoding.com/sketch -->
    <title>Fliit</title>
    <desc>Created with Sketch.</desc>
    <defs></defs>
    <g id="final_deliverable" stroke="none" stroke-width="1" fill="none" fill-rule="evenodd">
        <g id="shipper" transform="translate(-20.000000, -24.000000)">
            <g id="Copy-of-Fruiton_Logo_4c_RZ_vektordatei-(1)"></g>
            <g id="FliitLogoWhiteDarkBg" transform="translate(20.000000, 24.000000)" fill="#FFFFFF" fill-rule="nonzero">
                <g id="Fliit">
                    <path d="M15.5988506,4.05807547 L13.8747126,4.05807547 C9.31149425,4.05807547 9.03563218,7.39203774 9.09310345,10.3750566 L9.09310345,12.7146792 L14.162069,12.7146792 L14.162069,16.2475094 L9.09310345,16.2475094 L9.09310345,30.9871321 L4.25287356,30.9871321 L4.25287356,16.2475094 L0.0229885057,16.2475094 L0.0229885057,12.7146792 L4.25287356,12.7146792 L4.25287356,10.3750566 C4.25287356,4.2569434 6.70114943,0.0924150943 12.9310345,0.0924150943 L15.5977011,0.0924150943 L15.5988506,4.05807547 Z" id="Shape"></path>
                    <polygon id="Shape" points="24.5183908 0.0690188679 24.5183908 30.975434 19.6793103 30.975434 19.6793103 0.0690188679"></polygon>
                    <polygon id="Shape" points="29.9206897 12.7146792 29.9206897 30.975434 34.7597701 30.975434 34.7597701 12.7146792"></polygon>
                    <polygon id="Shape" points="40.162069 12.7146792 40.162069 30.975434 45.0011494 30.975434 45.0011494 12.7146792"></polygon>
                    <polygon id="Shape" points="29.9206897 3.56675472 29.9206897 8.50335849 34.7597701 8.50335849 34.7597701 3.56675472"></polygon>
                    <polygon id="Shape" points="40.162069 3.56675472 40.162069 8.50335849 45.0011494 8.50335849 45.0011494 3.56675472"></polygon>
                    <polygon id="Shape" points="59.9206897 12.6339623 59.9206897 16.1667925 55.2425287 16.1667925 55.2425287 30.9883019 50.4034483 30.9883019 50.4034483 0.0690188679 55.2425287 0.0690188679 55.2425287 12.6339623"></polygon>
                </g>
            </g>
        </g>
    </g>
</svg>